<?xml version="1.0" ?>
<mxfile host="app.diagrams.net" modified="2025-09-10T10:00:00.000Z" agent="python" version="21.6.5">
  <diagram id="network-diagram-1" name="Sydney HQ + Newcastle Branch">
    <mxGraphModel dx="1024" dy="768" grid="1" gridSize="10" guides="1" tooltips="1" connect="1" arrows="1" fold="1" page="1" pageScale="1" pageWidth="2000" pageHeight="1400" math="0" shadow="0">
      <root>
        <mxCell id="0"/>
        <mxCell id="1" parent="0"/>
        <mxCell id="hq" value="Sydney HQ (65 staff)" style="rounded=1;whiteSpace=wrap;html=1;fillColor=#dae8fc;strokeColor=#6c8ebf;" vertex="1" parent="1">
          <mxGeometry x="60" y="60" width="760" height="500" as="geometry"/>
        </mxCell>
        <mxCell id="isp" value="ISP / Internet" style="shape=cloud;whiteSpace=wrap;html=1;fillColor=#fff2cc;strokeColor=#d6b656;" vertex="1" parent="1">
          <mxGeometry x="420" y="10" width="140" height="60" as="geometry"/>
        </mxCell>
        <mxCell id="e_isphq" style="edgeStyle=orthogonalEdgeStyle;rounded=1;orthogonalLoop=1;jettySize=auto;html=1;endArrow=block" edge="1" parent="1" source="isp" target="hq">
          <mxGeometry relative="1" as="geometry"/>
        </mxCell>
        <mxCell id="gw" value="Edge Router/Firewall (UDM-Pro)" style="shape=process;whiteSpace=wrap;html=1;fillColor=#d5e8d4;strokeColor=#82b366;" vertex="1" parent="1">
          <mxGeometry x="120" y="120" width="180" height="60" as="geometry"/>
        </mxCell>
        <mxCell id="e1" style="edgeStyle=orthogonalEdgeStyle;rounded=1;orthogonalLoop=1;jettySize=auto;html=1;endArrow=block" edge="1" parent="1" source="isp" target="gw">
          <mxGeometry relative="1" as="geometry"/>
        </mxCell>
        <mxCell id="core" value="Core Switch (USW-24-POE)" style="shape=process;whiteSpace=wrap;html=1;fillColor=#d5e8d4;strokeColor=#82b366;" vertex="1" parent="1">
          <mxGeometry x="360" y="120" width="200" height="60" as="geometry"/>
        </mxCell>
        <mxCell id="e2" style="edgeStyle=orthogonalEdgeStyle;rounded=1;orthogonalLoop=1;jettySize=auto;html=1;endArrow=block" edge="1" parent="1" source="gw" target="core">
          <mxGeometry relative="1" as="geometry"/>
        </mxCell>
        <mxCell id="srv1" value="HQ App/DB Server
(Booking/CRM/HR)" style="shape=process;whiteSpace=wrap;html=1;fillColor=#d5e8d4;strokeColor=#82b366;" vertex="1" parent="1">
          <mxGeometry x="620" y="120" width="180" height="60" as="geometry"/>
        </mxCell>
        <mxCell id="e3" style="edgeStyle=orthogonalEdgeStyle;rounded=1;orthogonalLoop=1;jettySize=auto;html=1;endArrow=block" edge="1" parent="1" source="core" target="srv1">
          <mxGeometry relative="1" as="geometry"/>
        </mxCell>
        <mxCell id="iot" value="CCTV NVR &amp; IoT sensors" style="shape=process;whiteSpace=wrap;html=1;fillColor=#d5e8d4;strokeColor=#82b366;" vertex="1" parent="1">
          <mxGeometry x="620" y="200" width="180" height="60" as="geometry"/>
        </mxCell>
        <mxCell id="e4" style="edgeStyle=orthogonalEdgeStyle;rounded=1;orthogonalLoop=1;jettySize=auto;html=1;endArrow=block" edge="1" parent="1" source="core" target="iot">
          <mxGeometry relative="1" as="geometry"/>
        </mxCell>
        <mxCell id="acc1" value="Access Switch (Level 1)" style="shape=process;whiteSpace=wrap;html=1;fillColor=#d5e8d4;strokeColor=#82b366;" vertex="1" parent="1">
          <mxGeometry x="180" y="230" width="220" height="60" as="geometry"/>
        </mxCell>
        <mxCell id="acc2" value="Access Switch (Level 2)" style="shape=process;whiteSpace=wrap;html=1;fillColor=#d5e8d4;strokeColor=#82b366;" vertex="1" parent="1">
          <mxGeometry x="420" y="230" width="220" height="60" as="geometry"/>
        </mxCell>
        <mxCell id="e5" style="edgeStyle=orthogonalEdgeStyle;rounded=1;orthogonalLoop=1;jettySize=auto;html=1;endArrow=block" edge="1" parent="1" source="core" target="acc1">
          <mxGeometry relative="1" as="geometry"/>
        </mxCell>
        <mxCell id="e6" style="edgeStyle=orthogonalEdgeStyle;rounded=1;orthogonalLoop=1;jettySize=auto;html=1;endArrow=block" edge="1" parent="1" source="core" target="acc2">
          <mxGeometry relative="1" as="geometry"/>
        </mxCell>
        <mxCell id="ap1" value="AP-01 (U6 Lite)" style="shape=ellipse;whiteSpace=wrap;html=1;fillColor=#f8cecc;strokeColor=#b85450;" vertex="1" parent="1">
          <mxGeometry x="150" y="320" width="120" height="70" as="geometry"/>
        </mxCell>
        <mxCell id="ap2" value="AP-02 (U6 Lite)" style="shape=ellipse;whiteSpace=wrap;html=1;fillColor=#f8cecc;strokeColor=#b85450;" vertex="1" parent="1">
          <mxGeometry x="330" y="320" width="120" height="70" as="geometry"/>
        </mxCell>
        <mxCell id="ap3" value="AP-03 (U6 Pro)" style="shape=ellipse;whiteSpace=wrap;html=1;fillColor=#f8cecc;strokeColor=#b85450;" vertex="1" parent="1">
          <mxGeometry x="510" y="320" width="120" height="70" as="geometry"/>
        </mxCell>
        <mxCell id="e7" style="edgeStyle=orthogonalEdgeStyle;rounded=1;orthogonalLoop=1;jettySize=auto;html=1;endArrow=block" edge="1" parent="1" source="acc1" target="ap1">
          <mxGeometry relative="1" as="geometry"/>
        </mxCell>
        <mxCell id="e8" style="edgeStyle=orthogonalEdgeStyle;rounded=1;orthogonalLoop=1;jettySize=auto;html=1;endArrow=block" edge="1" parent="1" source="acc1" target="ap2">
          <mxGeometry relative="1" as="geometry"/>
        </mxCell>
        <mxCell id="e9" style="edgeStyle=orthogonalEdgeStyle;rounded=1;orthogonalLoop=1;jettySize=auto;html=1;endArrow=block" edge="1" parent="1" source="acc2" target="ap3">
          <mxGeometry relative="1" as="geometry"/>
        </mxCell>
        <mxCell id="ws" value="Office PCs/Phones/Printers" style="rounded=1;whiteSpace=wrap;html=1;fillColor=#dae8fc;strokeColor=#6c8ebf;" vertex="1" parent="1">
          <mxGeometry x="250" y="420" width="280" height="70" as="geometry"/>
        </mxCell>
        <mxCell id="e10" style="edgeStyle=orthogonalEdgeStyle;rounded=1;orthogonalLoop=1;jettySize=auto;html=1;endArrow=block" edge="1" parent="1" source="acc1" target="ws">
          <mxGeometry relative="1" as="geometry"/>
        </mxCell>
        <mxCell id="e11" style="edgeStyle=orthogonalEdgeStyle;rounded=1;orthogonalLoop=1;jettySize=auto;html=1;endArrow=block" edge="1" parent="1" source="acc2" target="ws">
          <mxGeometry relative="1" as="geometry"/>
        </mxCell>
        <mxCell id="ups" value="UPS (1.5kVA)" style="shape=process;whiteSpace=wrap;html=1;fillColor=#d5e8d4;strokeColor=#82b366;" vertex="1" parent="1">
          <mxGeometry x="620" y="280" width="180" height="60" as="geometry"/>
        </mxCell>
        <mxCell id="e12" style="edgeStyle=orthogonalEdgeStyle;rounded=1;orthogonalLoop=1;jettySize=auto;html=1;endArrow=block" edge="1" parent="1" source="core" target="ups">
          <mxGeometry relative="1" as="geometry"/>
        </mxCell>
        <mxCell id="br" value="Newcastle Branch (~20 staff)" style="rounded=1;whiteSpace=wrap;html=1;fillColor=#dae8fc;strokeColor=#6c8ebf;" vertex="1" parent="1">
          <mxGeometry x="60" y="650" width="700" height="330" as="geometry"/>
        </mxCell>
        <mxCell id="br_gw" value="Branch Router/Firewall (UDM-Pro)" style="shape=process;whiteSpace=wrap;html=1;fillColor=#d5e8d4;strokeColor=#82b366;" vertex="1" parent="1">
          <mxGeometry x="120" y="720" width="220" height="60" as="geometry"/>
        </mxCell>
        <mxCell id="br_sw" value="Branch Switch (USW-24-POE)" style="shape=process;whiteSpace=wrap;html=1;fillColor=#d5e8d4;strokeColor=#82b366;" vertex="1" parent="1">
          <mxGeometry x="380" y="720" width="220" height="60" as="geometry"/>
        </mxCell>
        <mxCell id="br_ap" value="Branch AP (U6 Lite)" style="shape=ellipse;whiteSpace=wrap;html=1;fillColor=#f8cecc;strokeColor=#b85450;" vertex="1" parent="1">
          <mxGeometry x="380" y="820" width="140" height="70" as="geometry"/>
        </mxCell>
        <mxCell id="br_ws" value="Branch PCs/Phones/Printers" style="rounded=1;whiteSpace=wrap;html=1;fillColor=#dae8fc;strokeColor=#6c8ebf;" vertex="1" parent="1">
          <mxGeometry x="160" y="820" width="180" height="70" as="geometry"/>
        </mxCell>
        <mxCell id="e13" style="edgeStyle=orthogonalEdgeStyle;rounded=1;orthogonalLoop=1;jettySize=auto;html=1;endArrow=block" edge="1" parent="1" source="br_gw" target="br_sw">
          <mxGeometry relative="1" as="geometry"/>
        </mxCell>
        <mxCell id="e14" style="edgeStyle=orthogonalEdgeStyle;rounded=1;orthogonalLoop=1;jettySize=auto;html=1;endArrow=block" edge="1" parent="1" source="br_sw" target="br_ap">
          <mxGeometry relative="1" as="geometry"/>
        </mxCell>
        <mxCell id="e15" style="edgeStyle=orthogonalEdgeStyle;rounded=1;orthogonalLoop=1;jettySize=auto;html=1;endArrow=block" edge="1" parent="1" source="br_sw" target="br_ws">
          <mxGeometry relative="1" as="geometry"/>
        </mxCell>
        <mxCell id="vpn" value="IPSec Site-to-Site VPN over Internet" style="text;whiteSpace=wrap;html=1;align=center;" vertex="1" parent="1">
          <mxGeometry x="500" y="560" width="260" height="50" as="geometry"/>
        </mxCell>
        <mxCell id="e16" style="edgeStyle=orthogonalEdgeStyle;rounded=1;orthogonalLoop=1;jettySize=auto;html=1;endArrow=block" edge="1" parent="1" source="gw" target="vpn">
          <mxGeometry relative="1" as="geometry"/>
        </mxCell>
        <mxCell id="e17" style="edgeStyle=orthogonalEdgeStyle;rounded=1;orthogonalLoop=1;jettySize=auto;html=1;endArrow=block" edge="1" parent="1" source="vpn" target="br_gw">
          <mxGeometry relative="1" as="geometry"/>
        </mxCell>
      </root>
    </mxGraphModel>
  </diagram>
</mxfile>
